<svg width="14" height="16" viewBox="0 0 14 16" fill="none" xmlns="http://www.w3.org/2000/svg"><path fill-rule="evenodd" clip-rule="evenodd" d="M11.001 5.993a2.966 2.966 0 01-1.854-.66l-3.212 2.01c.1.426.1.87 0 1.298l3.212 2.008a2.993 2.993 0 014.82 1.946 2.997 2.997 0 01-4.116 3.176 2.995 2.995 0 01-1.77-3.433l-3.212-2.01A2.994 2.994 0 010 7.99a2.998 2.998 0 013.337-2.977c.56.064 1.092.286 1.532.64l3.212-2.01A2.998 2.998 0 0111.187.006a2.994 2.994 0 012.642 3.988 2.996 2.996 0 01-2.828 2zm0 8.053a1.06 1.06 0 10.002-2.122 1.06 1.06 0 00-.002 2.122zM3.015 6.93a1.06 1.06 0 10.002 2.12 1.06 1.06 0 00-.002-2.12zm7.986-4.963a1.029 1.029 0 100 2.058 1.029 1.029 0 000-2.058z" fill="#222"/></svg>