<svg width="14" height="14" viewBox="0 0 14 14" fill="none" xmlns="http://www.w3.org/2000/svg"><g clip-path="url(#clip0)"><path d="M14 11.052a.5.5 0 00-.03-.209c-.2-.24-.462-.422-.756-.527-.564-.316-1.141-.626-1.699-.953a2.047 2.047 0 00-.886-.457c-.607 0-1.493 1.8-2.031 1.8a2.138 2.138 0 01-.856-.388 9.894 9.894 0 01-4.07-4.065 2.134 2.134 0 01-.389-.853c0-.536 1.8-1.421 1.8-2.027a2.045 2.045 0 00-.458-.885C4.3 1.932 3.99 1.355 3.672.789a1.755 1.755 0 00-.528-.755A.5.5 0 002.935 0a4.427 4.427 0 00-1.384.312A2.62 2.62 0 00.5 1.524a3.789 3.789 0 00-.511 1.848c.074.9.306 1.78.687 2.6.214.608.49 1.191.824 1.742a16.783 16.783 0 004.778 4.769c.55.335 1.134.611 1.742.825.822.38 1.705.613 2.608.686a3.805 3.805 0 001.851-.507 2.62 2.62 0 001.214-1.052c.176-.442.28-.909.307-1.383z" fill="#0088CA"/></g><defs><clipPath id="clip0"><path fill="#fff" d="M0 0h14v14H0z"/></clipPath></defs></svg>