<svg width="8" height="16" viewBox="0 0 8 16" fill="none" xmlns="http://www.w3.org/2000/svg"><g clip-path="url(#clip0)"><path fill-rule="evenodd" clip-rule="evenodd" d="M.247 1.525l5.825 6.46-5.825 6.461a.918.918 0 00-.176.294.994.994 0 000 .693c.041.11.101.21.177.293.076.084.166.15.265.196a.744.744 0 00.623 0 .815.815 0 00.264-.197l6.378-7.073c.15-.181.234-.42.234-.666 0-.247-.084-.485-.234-.667L1.4.246A.815.815 0 001.136.05a.745.745 0 00-.623 0 .815.815 0 00-.265.195.918.918 0 00-.177.294.993.993 0 000 .693c.04.11.1.21.176.293z" fill="#fff"/></g><defs><clipPath id="clip0"><path transform="matrix(-1 0 0 1 8 0)" fill="#fff" d="M0 0h8v16H0z"/></clipPath></defs></svg>