<svg width="8" height="16" viewBox="0 0 8 16" fill="none" xmlns="http://www.w3.org/2000/svg"><path fill-rule="evenodd" clip-rule="evenodd" d="M7.753 1.525l-5.825 6.46 5.825 6.461a.918.918 0 01.176.294.994.994 0 010 .693.918.918 0 01-.177.293.817.817 0 01-.265.196.744.744 0 01-.623 0 .815.815 0 01-.264-.197L.222 8.652a1.047 1.047 0 01-.234-.666c0-.247.084-.485.234-.667L6.6.246A.815.815 0 016.864.05a.745.745 0 01.623 0 .814.814 0 01.265.195.917.917 0 01.177.294.993.993 0 010 .693c-.04.11-.1.21-.176.293z" fill="#fff"/></svg>