<svg width="17" height="14" viewBox="0 0 17 14" fill="none" xmlns="http://www.w3.org/2000/svg"><path fill-rule="evenodd" clip-rule="evenodd" d="M16.26 7.679a2.603 2.603 0 00-.863-.72 2.527 2.527 0 00-1.076-.28 4.186 4.186 0 01.85-2.141 4.406 4.406 0 011.807-1.457L15.278 0a11.93 11.93 0 00-1.754.883 8.175 8.175 0 00-1.941 1.655 9.5 9.5 0 00-1.595 2.655 10.115 10.115 0 00-.664 3.884 5.405 5.405 0 001.116 3.57c.382.449.858.803 1.392 1.035a3.745 3.745 0 001.69.307c.954.03 1.88-.33 2.579-.999a3.47 3.47 0 00.797-1.212c.178-.458.26-.95.239-1.443a3.884 3.884 0 00-.876-2.656zm-9.434 0a2.602 2.602 0 00-.864-.72 2.527 2.527 0 00-1.076-.28 4.186 4.186 0 01.85-2.141 4.407 4.407 0 011.808-1.456L5.842 0A11.93 11.93 0 004.09.883a8.173 8.173 0 00-1.941 1.655A9.5 9.5 0 00.553 5.194 10.115 10.115 0 00-.11 9.079a5.404 5.404 0 001.116 3.57c.382.449.858.802 1.392 1.035a3.745 3.745 0 001.69.306c.954.03 1.88-.33 2.579-.999a3.47 3.47 0 00.796-1.212c.18-.458.26-.95.24-1.444a3.884 3.884 0 00-.877-2.656z" fill="#222"/></svg>