<svg width="8" height="16" viewBox="0 0 8 16" fill="none" xmlns="http://www.w3.org/2000/svg">
<g clip-path="url(#clip0)">
<path fill-rule="evenodd" clip-rule="evenodd" d="M0.247337 1.52537L6.07214 7.98581L0.247337 14.4463C0.171748 14.5304 0.111808 14.6302 0.07094 14.74C0.0300717 14.8499 0.00907516 14.9676 0.00914955 15.0864C0.00922394 15.2053 0.0303679 15.323 0.0713735 15.4328C0.112379 15.5425 0.172443 15.6423 0.248137 15.7263C0.323831 15.8102 0.413672 15.8768 0.512531 15.9223C0.61139 15.9677 0.717329 15.991 0.824302 15.9909C0.931275 15.9908 1.03719 15.9673 1.13599 15.9218C1.23479 15.8762 1.32455 15.8095 1.40014 15.7254L7.77774 8.65248C7.92835 8.4708 8.01196 8.23282 8.01196 7.98581C8.01196 7.7388 7.92835 7.50082 7.77774 7.31914L1.40014 0.246254C1.32455 0.16215 1.23479 0.0954116 1.13599 0.04985C1.03719 0.0042884 0.931275 -0.0192044 0.824302 -0.0192869C0.717329 -0.0193694 0.61139 0.00395985 0.512531 0.049369C0.413672 0.0947781 0.323831 0.161378 0.248137 0.245365C0.172443 0.329353 0.112379 0.429084 0.0713735 0.538864C0.0303679 0.648643 0.00922489 0.766322 0.00915051 0.885181C0.00907612 1.00404 0.0300717 1.12175 0.07094 1.23159C0.111808 1.34144 0.171748 1.44126 0.247337 1.52537Z" fill="white"/>
</g>
<defs>
<clipPath id="clip0">
<rect width="8" height="16" transform="matrix(-1 0 0 1 8 0)" fill="white"/>
</clipPath>
</defs>
</svg>
