<svg width="8" height="16" viewBox="0 0 8 16" fill="none" xmlns="http://www.w3.org/2000/svg">
<path fill-rule="evenodd" clip-rule="evenodd" d="M7.75266 1.52537L1.92786 7.98581L7.75266 14.4463C7.82825 14.5304 7.88819 14.6302 7.92906 14.74C7.96993 14.8499 7.99092 14.9676 7.99085 15.0864C7.99078 15.2053 7.96963 15.323 7.92863 15.4328C7.88762 15.5425 7.82756 15.6423 7.75186 15.7263C7.67617 15.8102 7.58633 15.8768 7.48747 15.9223C7.38861 15.9677 7.28267 15.991 7.1757 15.9909C7.06872 15.9908 6.96281 15.9673 6.86401 15.9218C6.76521 15.8762 6.67545 15.8095 6.59986 15.7254L0.222264 8.65248C0.0716475 8.4708 -0.0119629 8.23282 -0.0119629 7.98581C-0.0119629 7.7388 0.0716475 7.50082 0.222264 7.31914L6.59986 0.246254C6.67545 0.16215 6.76521 0.0954116 6.86401 0.04985C6.96281 0.0042884 7.06872 -0.0192044 7.1757 -0.0192869C7.28267 -0.0193694 7.38861 0.00395985 7.48747 0.049369C7.58633 0.0947781 7.67617 0.161378 7.75186 0.245365C7.82756 0.329353 7.88762 0.429084 7.92863 0.538864C7.96963 0.648643 7.99078 0.766322 7.99085 0.885181C7.99092 1.00404 7.96993 1.12175 7.92906 1.23159C7.88819 1.34144 7.82825 1.44126 7.75266 1.52537Z" fill="white"/>
</svg>
