<svg width="17" height="14" viewBox="0 0 17 14" fill="none" xmlns="http://www.w3.org/2000/svg">
<path fill-rule="evenodd" clip-rule="evenodd" d="M16.2606 7.679C16.0268 7.37778 15.7323 7.13241 15.3974 6.95988C15.0625 6.78735 14.6952 6.69177 14.3209 6.67975C14.3996 5.89682 14.6946 5.15349 15.1709 4.53775C15.6369 3.89557 16.2606 3.39272 16.978 3.08087L15.2771 0C14.6704 0.245073 14.084 0.54033 13.5236 0.882875C12.797 1.32706 12.1423 1.88533 11.583 2.5375C10.9121 3.32558 10.3733 4.22303 9.98842 5.19312C9.51491 6.42851 9.28881 7.74966 9.32372 9.07725C9.26071 10.3675 9.65758 11.637 10.4398 12.6472C10.8219 13.096 11.2978 13.4498 11.8317 13.6823C12.3657 13.9147 12.9438 14.0198 13.5227 13.9895C14.4763 14.0186 15.4026 13.6596 16.1008 12.9902C16.4472 12.6491 16.7189 12.2357 16.8976 11.7777C17.0763 11.3197 17.1579 10.8277 17.1369 10.3346C17.1832 9.36694 16.8699 8.41742 16.2606 7.679V7.679ZM6.82557 7.679C6.59184 7.37778 6.29733 7.13241 5.96242 6.95988C5.62752 6.78735 5.2602 6.69177 4.88587 6.67975C4.9646 5.89682 5.25957 5.15349 5.73587 4.53775C6.20227 3.8958 6.82629 3.39326 7.54382 3.08175L5.84212 0C5.23541 0.245073 4.64897 0.54033 4.08857 0.882875C3.36198 1.32705 2.70724 1.88532 2.14802 2.5375C1.47698 3.32611 0.938084 4.22416 0.553421 5.19487C0.0801966 6.43032 -0.145606 7.75147 -0.110429 9.079C-0.173521 10.3693 0.223363 11.6388 1.00562 12.649C1.38788 13.0976 1.86379 13.4512 2.39771 13.6835C2.93162 13.9158 3.50968 14.0207 4.08857 13.9904C5.04217 14.0195 5.96847 13.6604 6.66662 12.9911C7.0131 12.65 7.28478 12.2366 7.46347 11.7786C7.64217 11.3206 7.72375 10.8286 7.70277 10.3355C7.74905 9.36741 7.43539 8.41751 6.82557 7.679V7.679Z" fill="#222222"/>
</svg>
