<svg width="11" height="7" viewBox="0 0 11 7" fill="none" xmlns="http://www.w3.org/2000/svg">
<path fill-rule="evenodd" clip-rule="evenodd" d="M1.06127 1.17653L5.5 5.54513L9.93873 1.17653C9.99651 1.11984 10.0651 1.07488 10.1406 1.04423C10.216 1.01358 10.2969 0.997834 10.3786 0.99789C10.4602 0.997945 10.5411 1.0138 10.6165 1.04456C10.6919 1.07531 10.7605 1.12036 10.8182 1.17713C10.8759 1.2339 10.9216 1.30128 10.9528 1.37543C10.984 1.44957 11.0001 1.52902 11 1.60925C10.9999 1.68948 10.9838 1.76892 10.9525 1.84302C10.9212 1.91712 10.8753 1.98444 10.8176 2.04113L5.95804 6.82433C5.83322 6.93729 5.66971 7 5.5 7C5.33029 7 5.16678 6.93729 5.04196 6.82433L0.182443 2.04113C0.124659 1.98444 0.0788052 1.91712 0.0475016 1.84302C0.0161979 1.76892 5.69241e-05 1.68948 2.14244e-07 1.60925C-5.64956e-05 1.52902 0.0159722 1.44957 0.0471711 1.37543C0.0783699 1.30128 0.124128 1.2339 0.181833 1.17713C0.239538 1.12036 0.308059 1.07531 0.383484 1.04456C0.45891 1.0138 0.539763 0.997946 0.621426 0.99789C0.70309 0.997834 0.783965 1.01358 0.859434 1.04423C0.934903 1.07488 1.00349 1.11984 1.06127 1.17653Z" fill="white"/>
</svg>
