<svg width="7" height="12" viewBox="0 0 7 12" fill="none" xmlns="http://www.w3.org/2000/svg">
<path fill-rule="evenodd" clip-rule="evenodd" d="M0.185319 10.9381L4.55392 6.4965L0.185318 2.05494C0.128626 1.99712 0.0836717 1.92849 0.0530205 1.85297C0.0223694 1.77746 0.00662197 1.69653 0.00667767 1.61481C0.00673338 1.5331 0.0225916 1.45219 0.0533457 1.37672C0.0840998 1.30125 0.129148 1.23268 0.185918 1.17494C0.242689 1.1172 0.310069 1.07141 0.384213 1.04019C0.458357 1.00897 0.537812 0.992935 0.618042 0.992992C0.698272 0.993049 0.777705 1.0092 0.851807 1.04052C0.925908 1.07185 0.993227 1.11773 1.04992 1.17555L5.83312 6.03816C5.94608 6.16307 6.00879 6.32668 6.00879 6.4965C6.00879 6.66632 5.94608 6.82992 5.83312 6.95483L1.04992 11.8174C0.993227 11.8753 0.925909 11.9211 0.851808 11.9525C0.777706 11.9838 0.698273 11.9999 0.618043 12C0.537813 12.0001 0.458358 11.984 0.384214 11.9528C0.31007 11.9216 0.24269 11.8758 0.185919 11.8181C0.129149 11.7603 0.0841007 11.6917 0.0533466 11.6163C0.0225925 11.5408 0.00673473 11.4599 0.006679 11.3782C0.00662328 11.2965 0.0223702 11.2155 0.0530214 11.14C0.0836725 11.0645 0.128627 10.9959 0.185319 10.9381Z" fill="#898989"/>
</svg>
