<svg width="8" height="5" viewBox="0 0 8 5" fill="none" xmlns="http://www.w3.org/2000/svg">
<path fill-rule="evenodd" clip-rule="evenodd" d="M0.762561 0.865171L3.99278 3.97173L7.22301 0.865172C7.26506 0.824858 7.31497 0.79289 7.36989 0.771093C7.42481 0.749297 7.48367 0.738099 7.5431 0.738138C7.60253 0.738178 7.66137 0.749455 7.71626 0.771324C7.77115 0.793194 7.82101 0.825228 7.86301 0.865598C7.905 0.905969 7.9383 0.953884 7.961 1.00661C7.98371 1.05933 7.99537 1.11583 7.99533 1.17289C7.99529 1.22994 7.98354 1.28642 7.96076 1.33912C7.93798 1.39181 7.90461 1.43968 7.86256 1.48L4.32612 4.88138C4.23528 4.96171 4.11629 5.00631 3.99278 5.00631C3.86928 5.00631 3.75029 4.96171 3.65945 4.88138L0.123005 1.48C0.0809529 1.43968 0.0475838 1.39181 0.024803 1.33912C0.00202217 1.28642 -0.0097242 1.22994 -0.00976547 1.17289C-0.00980674 1.11583 0.0018579 1.05933 0.0245625 1.00661C0.047267 0.953884 0.0805668 0.905969 0.122561 0.865598C0.164554 0.825228 0.21442 0.793194 0.26931 0.771324C0.3242 0.749455 0.383039 0.738178 0.442469 0.738139C0.501898 0.738099 0.560754 0.749297 0.615675 0.771093C0.670597 0.79289 0.720508 0.824858 0.762561 0.865171Z" fill="#B0B0B0"/>
</svg>
