<svg width="5" height="9" viewBox="0 0 5 9" fill="none" xmlns="http://www.w3.org/2000/svg">
<path fill-rule="evenodd" clip-rule="evenodd" d="M0.123546 7.23732L3.03595 4.00709L0.123547 0.776872C0.0857526 0.73482 0.0557827 0.684908 0.0353486 0.629987C0.0149145 0.575065 0.00441622 0.51621 0.00445337 0.45678C0.00449051 0.397351 0.0150626 0.338511 0.0355653 0.283621C0.0560681 0.228732 0.0861004 0.178866 0.123947 0.136872C0.161794 0.0948786 0.206715 0.0615784 0.256144 0.0388738C0.305573 0.0161693 0.358543 0.00450458 0.41203 0.00454585C0.465516 0.00458713 0.518472 0.0163338 0.567873 0.0391147C0.617274 0.0618955 0.662153 0.0952647 0.699947 0.137317L3.88875 3.67376C3.96405 3.7646 4.00586 3.88359 4.00586 4.00709C4.00586 4.1306 3.96405 4.24959 3.88875 4.34043L0.699946 7.87687C0.662152 7.91892 0.617273 7.95229 0.567872 7.97507C0.518471 7.99786 0.465516 8.0096 0.412029 8.00964C0.358542 8.00968 0.305573 7.99802 0.256143 7.97532C0.206714 7.95261 0.161794 7.91931 0.123947 7.87732C0.0860997 7.83532 0.0560674 7.78546 0.0355647 7.73057C0.015062 7.67568 0.00449036 7.61684 0.00445322 7.55741C0.00441608 7.49798 0.0149139 7.43912 0.035348 7.3842C0.0557821 7.32928 0.085752 7.27937 0.123546 7.23732Z" fill="#299BD2"/>
</svg>
