<svg width="10" height="17" viewBox="0 0 10 17" fill="none" xmlns="http://www.w3.org/2000/svg">
<path fill-rule="evenodd" clip-rule="evenodd" d="M9.61369 1.54465L3.14169 8.0051L9.61369 14.4655C9.69768 14.5496 9.76428 14.6495 9.80969 14.7593C9.8551 14.8692 9.87843 14.9869 9.87834 15.1057C9.87826 15.2246 9.85477 15.3423 9.80921 15.452C9.76364 15.5618 9.69691 15.6616 9.6128 15.7455C9.5287 15.8295 9.42887 15.8961 9.31903 15.9415C9.20919 15.9869 9.09148 16.0103 8.97262 16.0102C8.85376 16.0101 8.73608 15.9866 8.6263 15.9411C8.51652 15.8955 8.41679 15.8288 8.3328 15.7447L1.24658 8.67176C1.07923 8.49008 0.986328 8.25211 0.986328 8.0051C0.986328 7.75809 1.07923 7.52011 1.24658 7.33843L8.3328 0.265541C8.41679 0.181437 8.51652 0.114699 8.6263 0.0691371C8.73608 0.0235755 8.85376 8.27592e-05 8.97262 2.18263e-07C9.09148 -8.23227e-05 9.20919 0.023247 9.31903 0.0686561C9.42887 0.114065 9.5287 0.180665 9.6128 0.264652C9.69691 0.34864 9.76364 0.448371 9.80921 0.558151C9.85477 0.66793 9.87826 0.785609 9.87834 0.904468C9.87843 1.02333 9.8551 1.14104 9.80969 1.25088C9.76428 1.36072 9.69768 1.46055 9.61369 1.54465Z" fill="#222222"/>
</svg>
