<svg width="16" height="13" viewBox="0 0 16 13" fill="none" xmlns="http://www.w3.org/2000/svg">
<path fill-rule="evenodd" clip-rule="evenodd" d="M14 13H2C1.46957 13 0.960859 12.7893 0.585786 12.4142C0.210714 12.0391 0 11.5304 0 11V2C0 1.46957 0.210714 0.960859 0.585786 0.585786C0.960859 0.210714 1.46957 0 2 0L14 0C14.5304 0 15.0391 0.210714 15.4142 0.585786C15.7893 0.960859 16 1.46957 16 2V11C16 11.5304 15.7893 12.0391 15.4142 12.4142C15.0391 12.7893 14.5304 13 14 13ZM3.534 2L8.015 6.482L12.5 2H3.534ZM14 3.5L8.827 8.671C8.72087 8.77601 8.5935 8.85711 8.45346 8.90885C8.31341 8.96059 8.16391 8.98178 8.015 8.971C7.86625 8.98164 7.71695 8.96037 7.57708 8.90864C7.43722 8.8569 7.31002 8.77588 7.204 8.671L2 3.467V11H14V3.5Z" fill="#0088CA"/>
</svg>
