<svg width="13" height="16" viewBox="0 0 13 16" fill="none" xmlns="http://www.w3.org/2000/svg">
<g clip-path="url(#clip0)">
<path d="M11.9001 9.916H11.9301L7.00006 16H6.00006L1.06708 9.916H1.09705C0.381318 8.87378 -0.00213952 7.63931 -0.00292969 6.375C-0.00292969 4.65109 0.681892 2.99779 1.90088 1.7788C3.11987 0.559818 4.77316 -0.125 6.49707 -0.125C8.22098 -0.125 9.87428 0.559818 11.0933 1.7788C12.3122 2.99779 12.9971 4.65109 12.9971 6.375C12.9972 7.639 12.6148 8.87343 11.9001 9.916ZM6.50006 2C5.68523 2.00012 4.88569 2.22148 4.18683 2.64046C3.48797 3.05945 2.91599 3.66033 2.53192 4.37897C2.14786 5.09762 1.96616 5.90706 2.00616 6.72091C2.04617 7.53476 2.30635 8.32248 2.75903 9H2.74707L6.28906 13.447H6.71106L10.2891 9H10.2401C10.6927 8.32255 10.9529 7.53492 10.993 6.72116C11.033 5.90739 10.8514 5.09802 10.4674 4.37941C10.0835 3.6608 9.51165 3.05991 8.81293 2.64085C8.11421 2.22179 7.31481 2.0003 6.50006 2ZM6.50006 8C6.20339 8 5.91336 7.91203 5.66669 7.7472C5.42001 7.58238 5.22779 7.34811 5.11426 7.07402C5.00073 6.79993 4.97099 6.49833 5.02887 6.20736C5.08675 5.91639 5.22961 5.64912 5.43939 5.43934C5.64917 5.22956 5.91643 5.0867 6.2074 5.02882C6.49837 4.97095 6.80001 5.00065 7.0741 5.11418C7.34819 5.22771 7.58243 5.41997 7.74725 5.66665C7.91208 5.91332 8.00006 6.20333 8.00006 6.5C8.00006 6.89782 7.84203 7.27936 7.56073 7.56066C7.27943 7.84197 6.89789 8 6.50006 8Z" fill="#0088CA"/>
</g>
<defs>
<clipPath id="clip0">
<rect width="13" height="16" fill="white"/>
</clipPath>
</defs>
</svg>
