<svg width="14" height="16" viewBox="0 0 14 16" fill="none" xmlns="http://www.w3.org/2000/svg">
<path fill-rule="evenodd" clip-rule="evenodd" d="M11.0012 5.99295C10.3264 5.99057 9.67247 5.75803 9.14746 5.33372L5.93504 7.34236C6.03483 7.76943 6.03483 8.21377 5.93504 8.64084L9.14746 10.6495C9.70244 10.2121 10.3941 9.98518 11.1001 10.0087C11.8062 10.0322 12.4812 10.3047 13.0058 10.778C13.5305 11.2514 13.8711 11.895 13.9673 12.5953C14.0636 13.2955 13.9093 14.0072 13.5318 14.6047C13.1543 15.2022 12.5779 15.6469 11.9044 15.8602C11.231 16.0736 10.5038 16.0419 9.8514 15.7707C9.19903 15.4995 8.66348 15.0063 8.33938 14.3782C8.01529 13.7502 7.92353 13.0277 8.08032 12.3385L4.86889 10.3278C4.4286 10.6813 3.89744 10.903 3.33666 10.9675C2.77587 11.032 2.2083 10.9365 1.69936 10.6922C1.19043 10.4479 0.760868 10.0647 0.460199 9.58669C0.159531 9.10869 0 8.55539 0 7.9906C0 7.42581 0.159531 6.87252 0.460199 6.39452C0.760868 5.91652 1.19043 5.53328 1.69936 5.28897C2.2083 5.04466 2.77587 4.94924 3.33666 5.01371C3.89744 5.07818 4.4286 5.29992 4.86889 5.65335L8.08131 3.64472C7.94712 3.03874 8.0043 2.40603 8.24496 1.83397C8.48561 1.26192 8.89787 0.778751 9.42479 0.451214C9.9517 0.123676 10.5673 -0.0320697 11.1865 0.00549454C11.8056 0.0430587 12.3979 0.272076 12.8814 0.660913C13.3649 1.04975 13.7158 1.57922 13.8856 2.17617C14.0554 2.77313 14.0358 3.40813 13.8294 3.99343C13.623 4.57874 13.2401 5.08548 12.7334 5.44366C12.2268 5.80183 11.6216 5.99377 11.0012 5.99295ZM11.0012 14.0455C11.2112 14.0457 11.4165 13.9836 11.5912 13.867C11.7658 13.7504 11.902 13.5846 11.9824 13.3905C12.0629 13.1965 12.084 12.9829 12.0431 12.7768C12.0021 12.5708 11.9011 12.3815 11.7526 12.233C11.6041 12.0844 11.415 11.9833 11.209 11.9423C11.0031 11.9014 10.7896 11.9225 10.5957 12.003C10.4018 12.0835 10.236 12.2197 10.1195 12.3945C10.003 12.5692 9.94089 12.7746 9.94109 12.9847C9.94109 13.2661 10.0528 13.5359 10.2516 13.7348C10.4504 13.9337 10.7201 14.0455 11.0012 14.0455ZM3.01511 6.92985C2.80547 6.93005 2.6006 6.99242 2.42638 7.1091C2.25217 7.22578 2.11645 7.39152 2.03636 7.58536C1.95627 7.77921 1.93542 7.99246 1.97644 8.19816C2.01746 8.40386 2.1185 8.59277 2.26681 8.74102C2.41512 8.88927 2.60402 8.99019 2.80964 9.03104C3.01527 9.07189 3.22838 9.05083 3.42204 8.97051C3.6157 8.8902 3.78122 8.75424 3.89766 8.57982C4.01411 8.4054 4.07626 8.20036 4.07626 7.9906C4.076 7.70918 3.96408 7.43938 3.76511 7.24048C3.56613 7.04158 3.29637 6.92985 3.01511 6.92985ZM11.0012 1.96669C10.7977 1.96669 10.5987 2.02708 10.4294 2.14024C10.2602 2.25339 10.1283 2.41422 10.0504 2.60239C9.97248 2.79056 9.9521 2.99762 9.99181 3.19738C10.0315 3.39714 10.1295 3.58063 10.2735 3.72465C10.4174 3.86866 10.6008 3.96675 10.8005 4.00648C11.0001 4.04621 11.207 4.02582 11.3951 3.94788C11.5832 3.86994 11.7439 3.73794 11.857 3.5686C11.9701 3.39925 12.0305 3.20015 12.0305 2.99648C12.0305 2.72336 11.922 2.46143 11.729 2.26831C11.536 2.07518 11.2742 1.96669 11.0012 1.96669Z" fill="#222222"/>
</svg>
