<svg width="14" height="14" viewBox="0 0 14 14" fill="none" xmlns="http://www.w3.org/2000/svg">
<g clip-path="url(#clip0)">
<path d="M14 11.052C14.005 10.981 13.9948 10.9097 13.97 10.843C13.7694 10.6032 13.5084 10.4213 13.214 10.316C12.65 10 12.073 9.69 11.515 9.363C11.2619 9.13998 10.9575 8.98299 10.629 8.906C10.022 8.906 9.13601 10.706 8.59801 10.706C8.28743 10.6418 7.99504 10.5092 7.74201 10.318C6.0127 9.39598 4.59615 7.98118 3.67201 6.253C3.48072 6.00102 3.34785 5.70965 3.28301 5.4C3.28301 4.864 5.08301 3.979 5.08301 3.373C5.00566 3.04475 4.84832 2.74072 4.62501 2.488C4.30001 1.932 3.99001 1.355 3.67201 0.788999C3.56639 0.494802 3.38411 0.234154 3.14401 0.0339994C3.07757 0.00787509 3.00631 -0.00371818 2.93501 -6.34347e-07C2.45991 0.0289201 1.99257 0.134273 1.55101 0.311999C1.08257 0.596168 0.715002 1.02004 0.500014 1.524C0.174062 2.086 -0.0019048 2.72238 -0.0109863 3.372C0.0625656 4.27245 0.295164 5.15274 0.676014 5.972C0.889557 6.57966 1.16571 7.16346 1.50001 7.714C2.75323 9.61088 4.37877 11.2334 6.27801 12.483C6.82848 12.8177 7.41229 13.0942 8.02001 13.308C8.84203 13.6888 9.725 13.9211 10.628 13.994C11.2782 13.9859 11.9155 13.8114 12.479 13.487C12.9839 13.2721 13.4085 12.9041 13.693 12.435C13.8691 11.9935 13.9727 11.5265 14 11.052Z" fill="#0088CA"/>
</g>
<defs>
<clipPath id="clip0">
<rect width="14" height="14" fill="white"/>
</clipPath>
</defs>
</svg>
